<?xml version="1.0" encoding="UTF-8" standalone="no"?>
<svg width="128px" height="67px" viewBox="0 0 128 67" version="1.1" xmlns="http://www.w3.org/2000/svg" xmlns:xlink="http://www.w3.org/1999/xlink">
    <!-- Generator: Sketch 3.7.2 (28276) - http://www.bohemiancoding.com/sketch -->
    <title>logo-02</title>
    <desc>Created with Sketch.</desc>
    <defs>
        <path d="M0.385627769,29.7230613 C0.385627769,46.1386834 27.5193086,59.4461226 60.9901777,59.4461226 C94.4606608,59.4461226 121.593956,46.1382974 121.593956,29.7226753 C121.593956,13.3078252 94.4606608,5.77315973e-15 60.9901777,5.77315973e-15 C27.5193086,5.77315973e-15 0.385627769,13.3078252 0.385627769,29.7230613" id="path-1"></path>
        <linearGradient x1="0.0137898089%" y1="50.0230518%" x2="100.01379%" y2="50.0230518%" id="linearGradient-3">
            <stop stop-color="#171318" offset="0%"></stop>
            <stop stop-color="#888A8C" offset="45.75%"></stop>
            <stop stop-color="#171318" offset="84.91%"></stop>
            <stop stop-color="#36363A" offset="100%"></stop>
        </linearGradient>
        <path d="M0.0517258469,5.37639997 C5.0942239,4.02264963 10.7728727,3.26065843 16.7800192,3.26065843 C37.6456082,3.26065843 54.5611182,12.4408382 54.5611182,23.7657106 C54.5611182,28.6939486 51.3564318,33.2161 46.0170891,36.7527583 L51.5490526,41.6238662 C60.2169921,37.3140223 65.7126704,30.9127558 65.7126704,23.7657106 C65.7126704,10.7859971 47.5954995,0.264419441 25.2476175,0.264419441 C15.7211833,0.264419441 6.96484669,2.17788976 0.0517258469,5.37639997" id="path-4"></path>
        <linearGradient x1="0.0216236236%" y1="49.9699847%" x2="100.021976%" y2="49.9699847%" id="linearGradient-6">
            <stop stop-color="#E21B22" offset="0%"></stop>
            <stop stop-color="#E21B22" offset="69.81%"></stop>
            <stop stop-color="#8B0304" offset="100%"></stop>
        </linearGradient>
        <path d="M0.279087965,0.650819238 L1.99183112,3.32898287 C4.15814047,3.53781632 6.38157986,3.64783025 8.64941084,3.64783025 C10.1965541,3.64783025 11.7224666,3.59494636 13.2244462,3.49689886 L9.30717833,0.0467076678 C6.41361901,0.435809561 3.39113108,0.646573087 0.279087965,0.650819238" id="path-7"></path>
        <linearGradient x1="0.011708603%" y1="49.7007311%" x2="100.012305%" y2="49.7007311%" id="linearGradient-9">
            <stop stop-color="#E21B22" offset="0%"></stop>
            <stop stop-color="#E21B22" offset="69.81%"></stop>
            <stop stop-color="#8B0304" offset="100%"></stop>
        </linearGradient>
        <path d="M0.19995514,4.31370403 L4.43414033,8.04143913 C7.87738327,7.57088833 14.3936819,5.75971166 17.4354706,4.81474992 L12.7396129,0.160967748 C9.97614021,1.28388184 3.47489608,3.63123166 0.19995514,4.31370403" id="path-10"></path>
        <linearGradient x1="0.0201421756%" y1="49.9239338%" x2="100.023278%" y2="49.9239338%" id="linearGradient-12">
            <stop stop-color="#E21B22" offset="0%"></stop>
            <stop stop-color="#E21B22" offset="69.81%"></stop>
            <stop stop-color="#8B0304" offset="100%"></stop>
        </linearGradient>
        <path d="M38.311482,9.70400049 L37.3464475,7.21652768 C37.3464475,7.21652768 10.6771412,6.40010852 0.125840493,0.249750918 C0.125840493,0.249750918 7.43539749,6.40937286 38.311482,9.70400049" id="path-13"></path>
        <linearGradient x1="-0.0367995714%" y1="50.3546986%" x2="99.9640091%" y2="50.3546986%" id="linearGradient-15">
            <stop stop-color="#E21B22" offset="0%"></stop>
            <stop stop-color="#E21B22" offset="69.81%"></stop>
            <stop stop-color="#8B0304" offset="100%"></stop>
        </linearGradient>
        <path d="M3.23672557,1.80886059 C3.31354231,1.41396849 3.43127652,1.21632943 3.58799811,1.21632943 L6.39779244,1.21632943 C6.50085812,1.21632943 6.55142593,1.26805528 6.55142593,1.36996292 L6.55142593,1.43635729 C6.55142593,1.48306495 6.46997702,1.74709838 6.30900927,2.22575547 L3.0834781,2.22575547 C3.17419134,1.94859758 3.22591719,1.80886059 3.23672557,1.80886059 L3.23672557,1.80886059 Z M1.1510931,0.361308901 L1.1510931,0.404156431 C1.37112096,0.540033283 1.48074887,0.678998245 1.48074887,0.820665303 L1.48074887,1.04107917 C1.48074887,1.08855887 1.11557983,2.20761283 0.382925673,4.39901307 L2.33654143,4.39901307 C2.3554561,4.39901307 2.38479315,4.34728723 2.42493859,4.24499357 C2.67430349,3.45482336 2.81249642,3.05993126 2.8426055,3.05993126 L6.04574787,3.05993126 C6.00367237,3.22437313 5.84926686,3.66288479 5.58561944,4.37701029 L5.62885299,4.39939909 L7.58285476,4.39939909 C8.22672575,2.62103359 8.54866124,1.58921875 8.54866124,1.30318253 C8.54866124,1.24180634 8.54132698,1.16151547 8.52588643,1.06269595 C8.33982778,0.593689198 7.93798744,0.361308901 7.31959336,0.361308901 L1.1510931,0.361308901 L1.1510931,0.361308901 Z" id="path-16"></path>
        <linearGradient x1="50.0952458%" y1="-137.61672%" x2="50.0952396%" y2="145.353359%" id="linearGradient-18">
            <stop stop-color="#E21B22" offset="0%"></stop>
            <stop stop-color="#E21B22" offset="69.81%"></stop>
            <stop stop-color="#8B0304" offset="100%"></stop>
        </linearGradient>
        <path d="M0.607585695,0.361308901 L0.607585695,0.404156431 C0.870847095,0.531926993 1.00247779,0.694052782 1.00247779,0.887445687 L1.00247779,1.06269595 C0.460514443,2.74146989 0.189918781,3.60498272 0.189918781,3.6520764 C0.189918781,4.15003418 0.906746377,4.39939909 2.34078758,4.39939909 L6.22640232,4.39939909 L6.26924985,4.37701029 C6.16386809,4.19365374 6.03841361,4.04079228 5.89674655,3.91649584 C5.68405296,3.6520764 5.07723929,3.52121773 4.07476149,3.52121773 L2.47241828,3.52121773 C2.38479315,3.52121773 2.3187848,3.4698779 2.27477922,3.36758424 C2.27477922,3.2513941 2.43536096,2.74571604 2.75806848,1.85325217 C2.82677893,1.428251 2.98041242,1.21671544 3.2178109,1.21671544 L5.17181267,1.21671544 C6.05308213,1.21671544 6.74752093,0.938399507 7.2562871,0.382539659 L7.2562871,0.361694915 L0.607585695,0.361694915 L0.607585695,0.361308901 Z" id="path-19"></path>
        <linearGradient x1="50.1078507%" y1="-137.61672%" x2="50.1078436%" y2="145.353359%" id="linearGradient-21">
            <stop stop-color="#E21B22" offset="0%"></stop>
            <stop stop-color="#E21B22" offset="69.81%"></stop>
            <stop stop-color="#8B0304" offset="100%"></stop>
        </linearGradient>
        <path d="M0.856564585,0.361308901 L0.856564585,0.382153645 C1.09010292,0.56937033 1.20667909,0.73767234 1.20667909,0.887831701 L1.20667909,1.01907639 C0.885129605,2.05861151 0.512626304,3.17766546 0.0883971563,4.3773963 L0.1316307,4.3997851 L2.02001013,4.3997851 C2.05629542,4.36658791 2.17364361,4.05893493 2.37051064,3.47798419 C2.92637049,1.87602699 3.20507244,0.990125354 3.20507244,0.821051317 C3.15682072,0.513784345 3.01052149,0.361694915 2.76540274,0.361694915 L0.856564585,0.361694915 L0.856564585,0.361308901 Z" id="path-22"></path>
        <linearGradient x1="50.3126874%" y1="-137.61672%" x2="50.3126713%" y2="145.353359%" id="linearGradient-24">
            <stop stop-color="#E21B22" offset="0%"></stop>
            <stop stop-color="#E21B22" offset="69.81%"></stop>
            <stop stop-color="#8B0304" offset="100%"></stop>
        </linearGradient>
        <path d="M0.851932419,0.361308901 L0.851932419,0.404156431 C1.07118825,0.540033283 1.18158819,0.678998245 1.18158819,0.820665303 L1.18158819,1.04107917 C1.18158819,1.08855887 0.814875096,2.20761283 0.0849230323,4.39901307 L2.05861151,4.39901307 L2.93717888,1.80847457 C3.01399562,1.41358247 3.1309578,1.21594342 3.28845142,1.21594342 L6.09747372,1.21594342 C6.19629325,1.21594342 6.26191559,1.26766926 6.29511278,1.3695769 L6.29511278,1.39119367 C5.94384023,2.53302245 5.60839426,3.52739395 5.28491471,4.37662427 L5.32930629,4.39901307 L7.28292205,4.39901307 C7.92640702,2.62064757 8.2479565,1.58883273 8.2479565,1.30279652 C8.2479565,1.24142033 8.2421663,1.16112946 8.22749777,1.06230993 C8.03989508,0.593303185 7.6372827,0.360922887 7.01966065,0.360922887 L0.851932419,0.360922887 L0.851932419,0.361308901 Z" id="path-25"></path>
        <linearGradient x1="50.1373546%" y1="-137.61672%" x2="50.1373485%" y2="145.353359%" id="linearGradient-27">
            <stop stop-color="#E21B22" offset="0%"></stop>
            <stop stop-color="#E21B22" offset="69.81%"></stop>
            <stop stop-color="#8B0304" offset="100%"></stop>
        </linearGradient>
        <path d="M1.81079066,0.361308901 C1.53942297,0.361308901 1.33522168,0.433879492 1.19702874,0.580178716 C1.13835465,0.71837165 0.815647124,1.74285223 0.230450229,3.6520764 C0.230450229,3.71422462 0.245504766,3.78061899 0.274841814,3.85010147 C0.365555053,4.15003418 0.928363148,4.3326187 1.96365211,4.39939909 L4.8618436,4.39939909 C6.21906806,4.39939909 7.0744746,4.20137402 7.42844924,3.8060959 C7.54695547,3.8060959 7.69364071,3.41892408 7.86773293,2.64342239 C7.86773293,2.2628128 7.29102834,2.03583669 6.13453104,1.96288009 L4.55419061,1.96288009 C4.20677821,1.96288009 3.68720366,2.22575547 2.99585297,2.7530503 L2.99585297,2.79628385 L5.43237197,2.79628385 C5.68135086,2.79628385 5.80487527,2.87657471 5.80487527,3.03831449 C5.71725014,3.33052692 5.60105999,3.47759817 5.45437476,3.47759817 L2.35931624,3.47759817 C2.71058879,2.42725467 2.89394533,1.89262558 2.90822784,1.87564097 C2.98504459,1.46608035 3.11628927,1.26072102 3.30311994,1.26072102 L5.1027162,1.26072102 C6.15614781,1.26072102 6.945546,0.968508582 7.47322684,0.382153645 L7.47322684,0.361308901 L1.81079066,0.361308901 L1.81079066,0.361308901 Z" id="path-28"></path>
        <linearGradient x1="50.098794%" y1="-137.61672%" x2="50.0987874%" y2="145.353359%" id="linearGradient-30">
            <stop stop-color="#E21B22" offset="0%"></stop>
            <stop stop-color="#E21B22" offset="69.81%"></stop>
            <stop stop-color="#8B0304" offset="100%"></stop>
        </linearGradient>
        <path d="M3.02634806,1.54559919 C3.10277879,1.31206085 3.29308358,1.19509867 3.59649042,1.19509867 L6.09940379,1.19509867 C6.20131143,1.19509867 6.25303727,1.24566648 6.25303727,1.34757412 L6.25303727,1.41396849 C6.25303727,1.45758805 6.20092541,1.63399634 6.09940379,1.9408773 L2.89394533,1.9408773 L3.02634806,1.54559919 L3.02634806,1.54559919 Z M0.831473689,0.361308901 L0.831473689,0.382153645 C1.06501203,0.56937033 1.18274623,0.73767234 1.18274623,0.887831701 L1.18274623,1.01907639 C0.860810736,2.05861151 0.487535408,3.17766546 0.0629202467,4.3773963 L0.106925818,4.3997851 L1.43095309,4.3997851 L1.99453322,4.3997851 C2.03120453,4.36658791 2.08987862,4.23495721 2.16978348,4.00450699 C2.41914838,3.21356474 2.55849935,2.81905866 2.58745039,2.81905866 L2.89394533,2.81905866 C3.79374346,3.09969068 4.15929851,3.74587775 4.79043105,4.40017111 L6.84711249,4.40017111 C5.76434382,3.68797568 5.58021525,3.24907801 5.6601201,2.84183347 L5.6601201,2.81905866 C6.71741185,2.81905866 7.47052475,2.6214196 7.92061682,2.2265275 C8.13987265,1.85788434 8.25027259,1.54289709 8.25027259,1.28349583 C8.25027259,1.20243293 8.23599008,1.09280502 8.20626702,0.953840058 C7.95690211,0.559333972 7.62840438,0.362466942 7.21884376,0.362466942 L0.831473689,0.362466942 L0.831473689,0.361308901 Z" id="path-31"></path>
        <linearGradient x1="49.9700372%" y1="-137.61672%" x2="49.970031%" y2="145.353359%" id="linearGradient-33">
            <stop stop-color="#E21B22" offset="0%"></stop>
            <stop stop-color="#E21B22" offset="69.81%"></stop>
            <stop stop-color="#8B0304" offset="100%"></stop>
        </linearGradient>
    </defs>
    <g id="Page-1" stroke="none" stroke-width="1" fill="none" fill-rule="evenodd">
        <g id="logo-02">
            <g id="Group">
                <g id="Clipped" transform="translate(3.498254, 3.884267)">
                    <mask id="mask-2" fill="white">
                        <use xlink:href="#path-1"></use>
                    </mask>
                    <g id="SVGID_1_"></g>
                    <rect id="Rectangle-path" fill="url(#linearGradient-3)" mask="url(#mask-2)" x="0.385627769" y="5.77315973e-15" width="121.208328" height="59.4465086"></rect>
                </g>
                <path d="M127.97587,33.6857941 C127.97587,51.7632403 99.5409446,66.4186185 64.4644201,66.4186185 C29.3878955,66.4186185 0.952969679,51.7636654 0.952969679,33.6857941 C0.952969679,15.6079228 29.3878955,0.952969679 64.4644201,0.952969679 C99.5409446,0.952969679 127.97587,15.6083479 127.97587,33.6857941" id="Shape-Copy" fill="#D7D7D7"></path>
                <path d="M125.092595,33.6073287 C125.092595,50.0225648 97.9593005,63.33039 64.4884313,63.33039 C31.0175622,63.33039 3.88426739,50.0229508 3.88426739,33.6073287 C3.88426739,17.1917065 31.0175622,3.88426739 64.4884313,3.88426739 C97.9593005,3.88426739 125.092595,17.1920926 125.092595,33.6073287" id="Shape" fill="#000000"></path>
                <path d="M27.6179388,25.1254478 L49.8785817,25.1254478 C51.5604437,25.1254478 52.661355,25.7368937 53.1809296,26.9605574 C53.2631505,27.1234552 53.303682,27.3481152 53.303682,27.6329934 L53.303682,28.0000925 C51.5094899,33.4938406 50.5510177,36.2866504 50.4290373,36.3785216 L45.1695995,36.3785216 C45.0881506,36.3785216 45.0476192,36.3379902 45.0476192,36.2557693 C46.8410392,31.0785524 47.7385213,28.3266601 47.7385213,28.0000925 C47.7385213,27.6735248 47.5756234,27.510627 47.2490558,27.510627 L43.7629653,27.510627 C41.8471789,33.2595303 40.8277165,36.2156238 40.7057361,36.3785216 L35.4462984,36.3785216 C35.3640774,36.3785216 35.323546,36.3379902 35.323546,36.2557693 C37.0359031,31.2511006 38.0144481,28.3359245 38.2591808,27.511013 L33.9172978,27.511013 C32.0007393,33.2599163 30.9816629,36.2160098 30.8592966,36.3789077 L25.5998588,36.3789077 C25.5184099,36.3789077 25.4778784,36.3383762 25.4778784,36.2561553 C27.1902356,31.2727173 28.2297707,28.153726 28.5968698,26.8999532 L28.5968698,26.838191 C28.5968698,26.2985437 28.2703021,25.7477021 27.6183248,25.18721 L27.6183248,25.1254478 L27.6179388,25.1254478 Z" id="Shape" fill="#FFFFFF"></path>
                <path d="M77.5059742,25.1254478 L82.8264021,25.1254478 C83.5088745,25.1254478 83.916505,25.5531511 84.0492938,26.4101017 C84.0492938,26.9192539 83.5598283,28.5297034 82.5812834,31.2414502 L91.7545149,25.1254478 L97.3208337,25.1254478 L97.3208337,25.186438 C86.0465291,32.4234244 80.1559588,36.1546336 79.6464206,36.3785216 L75.4878941,36.3785216 L75.3659137,36.3175315 C76.5478879,32.9738801 77.587037,29.8548887 78.4841331,26.9605574 L78.4841331,26.5934583 C78.4841331,26.1757913 78.1583374,25.7067846 77.5063602,25.186438 L77.5063602,25.1254478 L77.5059742,25.1254478 Z" id="Shape" fill="#FFFFFF"></path>
                <path d="M73.5350504,36.3785216 C71.2884501,34.2751325 69.5127867,32.8252648 68.2115343,32.0358666 L68.2115343,31.9744904 C71.1572055,31.9744904 73.2567344,31.4244207 74.5105072,30.3238955 C75.121953,29.2947827 75.428062,28.4177594 75.428062,27.6943696 C75.428062,27.4704816 75.3875305,27.1643726 75.3060816,26.7768148 C74.6124148,25.6759035 73.6948601,25.1254478 72.5534173,25.1254478 L54.7574099,25.1254478 L54.7574099,25.186824 C55.4093872,25.7071706 55.7359548,26.1757913 55.7359548,26.5938443 L55.7359548,26.9609434 C54.8388588,29.8552747 53.7989377,32.9738801 52.6169635,36.3179175 L52.7389438,36.3789077 L57.9983816,36.3789077 C58.1002892,36.2870364 58.2631871,35.9199373 58.4878471,35.2779963 C59.1807418,33.0757877 59.5675276,31.9744904 59.6497486,31.9744904 L60.5063132,31.9744904 C62.9466923,32.7364816 68.6886473,36.3785216 68.6886473,36.3785216 L73.5350504,36.3785216 L73.5350504,36.3785216 Z M60.8726402,28.4277957 C61.0868779,27.7758185 61.6168748,27.4500228 62.462631,27.4500228 L69.4344259,27.4500228 C69.7200761,27.4500228 69.8632873,27.5924619 69.8632873,27.8773401 L69.8632873,28.0614687 C69.8632873,28.183449 69.7200761,28.6729145 69.4344259,29.5294791 L60.5063132,29.5294791 L60.8726402,28.4277957 L60.8726402,28.4277957 Z" id="Shape" fill="#FFFFFF"></path>
                <path d="M77.2689617,51.7970702 C74.3761744,52.1861721 71.3536865,52.3965496 68.2412573,52.4007957 L69.9543865,55.0789594 C72.1203099,55.2877928 74.3437492,55.3978068 76.6115802,55.3978068 C78.1587235,55.3978068 79.6846359,55.3449229 81.1866156,55.2468754 L77.2689617,51.7970702 L77.2689617,51.7970702 Z" id="Shape" fill="#C92127"></path>
                <g id="Clipped" transform="translate(51.363963, 8.130419)">
                    <mask id="mask-5" fill="white">
                        <use xlink:href="#path-4"></use>
                    </mask>
                    <g id="SVGID_4_"></g>
                    <rect id="Rectangle-path" fill="url(#linearGradient-6)" mask="url(#mask-5)" x="0.0517258469" y="0.264419441" width="65.6613305" height="41.3594468"></rect>
                </g>
                <g id="Clipped" transform="translate(67.962555, 51.749976)">
                    <mask id="mask-8" fill="white">
                        <use xlink:href="#path-7"></use>
                    </mask>
                    <g id="SVGID_7_"></g>
                    <rect id="Rectangle-path" fill="url(#linearGradient-9)" mask="url(#mask-8)" x="0.279087965" y="0.0467076678" width="12.9449722" height="3.60112258"></rect>
                </g>
                <g id="Clipped" transform="translate(81.473038, 46.731797)">
                    <mask id="mask-11" fill="white">
                        <use xlink:href="#path-10"></use>
                    </mask>
                    <g id="SVGID_10_"></g>
                    <rect id="Rectangle-path" fill="url(#linearGradient-12)" mask="url(#mask-11)" x="0.19995514" y="0.161353761" width="17.2351294" height="7.88008537"></rect>
                </g>
                <g id="Clipped" transform="translate(28.203136, 45.573756)">
                    <mask id="mask-14" fill="white">
                        <use xlink:href="#path-13"></use>
                    </mask>
                    <g id="SVGID_13_"></g>
                    <rect id="Rectangle-path" fill="url(#linearGradient-15)" mask="url(#mask-14)" x="0.125840493" y="0.249750918" width="38.1856415" height="9.45424958"></rect>
                </g>
                <g id="Clipped" transform="translate(33.221315, 39.397535)">
                    <mask id="mask-17" fill="white">
                        <use xlink:href="#path-16"></use>
                    </mask>
                    <g id="SVGID_16_"></g>
                    <rect id="Rectangle-path" fill="url(#linearGradient-18)" mask="url(#mask-17)" x="0.382925673" y="0.361308901" width="8.16496354" height="4.03809019"></rect>
                </g>
                <g id="Clipped" transform="translate(44.415715, 39.397535)">
                    <mask id="mask-20" fill="white">
                        <use xlink:href="#path-19"></use>
                    </mask>
                    <g id="SVGID_19_"></g>
                    <rect id="Rectangle-path" fill="url(#linearGradient-21)" mask="url(#mask-20)" x="0.189918781" y="0.361308901" width="7.06752636" height="4.03809019"></rect>
                </g>
                <g id="Clipped" transform="translate(54.452073, 39.397535)">
                    <mask id="mask-23" fill="white">
                        <use xlink:href="#path-22"></use>
                    </mask>
                    <g id="SVGID_22_"></g>
                    <rect id="Rectangle-path" fill="url(#linearGradient-24)" mask="url(#mask-23)" x="0.0883971563" y="0.361308901" width="3.11667529" height="4.03809019"></rect>
                </g>
                <g id="Clipped" transform="translate(59.856266, 39.397535)">
                    <mask id="mask-26" fill="white">
                        <use xlink:href="#path-25"></use>
                    </mask>
                    <g id="SVGID_25_"></g>
                    <rect id="Rectangle-path" fill="url(#linearGradient-27)" mask="url(#mask-26)" x="0.0849230323" y="0.361308901" width="8.16303347" height="4.03809019"></rect>
                </g>
                <g id="Clipped" transform="translate(70.664652, 39.397535)">
                    <mask id="mask-29" fill="white">
                        <use xlink:href="#path-28"></use>
                    </mask>
                    <g id="SVGID_28_"></g>
                    <rect id="Rectangle-path" fill="url(#linearGradient-30)" mask="url(#mask-29)" x="0.230836242" y="0.361308901" width="7.6372827" height="4.03809019"></rect>
                </g>
                <g id="Clipped" transform="translate(23.184957, 39.397535)">
                    <mask id="mask-32" fill="white">
                        <use xlink:href="#path-31"></use>
                    </mask>
                    <g id="SVGID_31_"></g>
                    <rect id="Rectangle-path" fill="url(#linearGradient-33)" mask="url(#mask-32)" x="0.0629202467" y="0.361308901" width="8.18735234" height="4.03809019"></rect>
                </g>
            </g>
        </g>
    </g>
</svg>