<?xml version="1.0" encoding="UTF-8" standalone="no"?>
<svg width="162px" height="44px" viewBox="0 0 162 44" version="1.1" xmlns="http://www.w3.org/2000/svg" xmlns:xlink="http://www.w3.org/1999/xlink">
    <!-- Generator: Sketch 3.7 (28169) - http://www.bohemiancoding.com/sketch -->
    <title>Group 66</title>
    <desc>Created with Sketch.</desc>
    <defs></defs>
    <g id="Page-1" stroke="none" stroke-width="1" fill="none" fill-rule="evenodd">
        <g id="mrv_]" transform="translate(0.000000, -1.000000)" fill="#FFFFFF">
            <g id="Group-66" transform="translate(0.000000, 0.650000)">
                <g id="Group" transform="translate(68.571429, 19.285714)">
                    <path d="M10.4625,2.92864286 L8.02892857,3.10971429 C7.09107143,3.17935714 6.3025,3.44025 5.66107143,3.89185714 C5.01964286,4.344 4.58392857,4.92042857 4.35178571,5.62060714 L9.70178571,5.22257143 L10.4625,2.92864286 Z M9.44821429,1.91989286 C10.4639286,1.84435714 11.3360714,1.779 12.0646429,1.72542857 C13.8617857,1.59792857 14.5339286,1.55132143 14.0825,1.58507143 L11.9717857,7.98203571 L8.71964286,8.23328571 L9.33535714,6.33417857 L3.97321429,6.73328571 L3.35607143,8.62275 L0.116785714,8.87346429 L1.15892857,5.72560714 C1.6025,4.37560714 2.89107143,3.35560714 5.02607143,2.66346429 C6.1175,2.30614286 7.1575,2.09025 8.14678571,2.01685714 C8.18178571,2.01417857 8.61535714,1.9815 9.44821429,1.91989286 L9.44821429,1.91989286 Z" id="Fill-22"></path>
                    <path d="M26.1767857,1.31389286 C27.2032143,1.64871429 27.7582143,2.18175 27.8403571,2.91139286 C27.8725,3.19103571 27.8317857,3.49264286 27.7196429,3.81460714 L26.5982143,7.01657143 L23.3539286,7.23246429 L24.4660714,4.06478571 C24.5517857,3.80978571 24.5817857,3.57407143 24.5567857,3.35871429 C24.5103571,2.94085714 24.2725,2.62264286 23.8453571,2.403 C23.4182143,2.18389286 22.8610714,2.0955 22.1746429,2.13942857 L19.8425,2.28728571 L17.9832143,7.56407143 L14.7267857,7.78103571 L16.9603571,1.40710714 L23.0053571,1.00317857 C24.2475,0.924428571 25.3046429,1.02782143 26.1767857,1.31389286" id="Fill-24"></path>
                    <path d="M32.7343571,5.58053571 L35.4350714,5.44125 C35.9050714,5.41714286 36.4065,5.3025 36.9379286,5.09892857 C37.9865,4.71053571 38.6686429,4.09821429 38.9850714,3.26303571 C39.0836429,3.00214286 39.1222143,2.75732143 39.1015,2.52910714 C39.0643571,2.12464286 38.8522143,1.80910714 38.4643571,1.58357143 C38.0765,1.35803571 37.5565,1.26160714 36.9043571,1.29535714 L34.2815,1.43035714 L32.7343571,5.58053571 Z M29.0500714,6.86196429 L31.4157857,0.486428571 L37.7572143,0.159642857 C38.9750714,0.0975 40.0207857,0.210535714 40.8957857,0.499821429 C41.9400714,0.833035714 42.4950714,1.36125 42.5615,2.08553571 C42.5857857,2.35339286 42.5386429,2.64428571 42.4186429,2.95767857 C41.9129286,4.30821429 40.5793571,5.30785714 38.4193571,5.95607143 C37.3129286,6.28875 36.2686429,6.48 35.2857857,6.53035714 L29.0500714,6.86196429 Z" id="Fill-26"></path>
                </g>
                <g id="Group-3">
                    <path d="M4.29964286,10.8825 L7.25178571,10.5653571 C7.59678571,10.5283929 7.9675,10.4389286 8.36321429,10.2975 C9.07964286,10.0355357 9.49678571,9.68357143 9.61464286,9.24160714 C9.65321429,9.11839286 9.66321429,9.00857143 9.64392857,8.91107143 C9.5925,8.63946429 9.36321429,8.4525 8.95678571,8.35125 C8.62107143,8.25482143 8.22821429,8.23125 7.77964286,8.27946429 L4.91821429,8.58642857 L4.29964286,10.8825 Z M3.46892857,13.935 L0.233928571,14.2923214 L1.96964286,7.81339286 L8.75392857,7.08482143 C9.72964286,6.97982143 10.6210714,6.99 11.4282143,7.11428571 C12.5175,7.28142857 13.1160714,7.64678571 13.2232143,8.20982143 C13.2539286,8.37160714 13.2432143,8.54464286 13.1896429,8.72839286 C12.9403571,9.68035714 11.9110714,10.4480357 10.1025,11.0325 C9.14035714,11.3469643 8.25392857,11.5478571 7.4425,11.6351786 L3.99892857,12.0048214 L3.46892857,13.935 Z" id="Fill-28"></path>
                    <path d="M27.1602857,5.19653571 L26.8467143,6.32635714 L21.661,6.84492857 C20.9524286,6.91510714 20.3131429,7.11867857 19.7438571,7.45457143 C19.1745714,7.79046429 18.7645714,8.19332143 18.5138571,8.66314286 L26.4088571,7.87457143 L26.0938571,8.99421429 L18.2238571,9.78064286 C18.291,10.2590357 18.5467143,10.60725 18.9902857,10.82475 C19.4052857,11.0326071 19.9288571,11.1081429 20.561,11.0513571 L25.6431429,10.5435 L25.3274286,11.6636786 L19.8045714,12.2154643 C18.586,12.3376071 17.5288571,12.2781429 16.6331429,12.0381429 C15.5695714,11.7477857 14.9738571,11.2436786 14.8467143,10.5242143 C14.7988571,10.2585 14.8224286,9.966 14.9145714,9.64617857 C15.2974286,8.28225 16.5381429,7.22475 18.6388571,6.47367857 C19.7217143,6.08207143 20.7467143,5.83725 21.7152857,5.74082143 L27.1602857,5.19653571 Z" id="Fill-30"></path>
                    <path d="M37.6834286,6.16333929 C37.6391429,5.89066071 37.4155714,5.70048214 37.012,5.59173214 C36.6791429,5.49048214 36.2877143,5.45994643 35.8377143,5.50066071 L32.9677143,5.76048214 L32.282,8.04583929 L35.2427143,7.77744643 C35.5884286,7.746375 35.962,7.66280357 36.3612857,7.52780357 C37.0855714,7.27816071 37.5134286,6.93316071 37.6441429,6.49280357 C37.6862857,6.37066071 37.6991429,6.26083929 37.6834286,6.16333929 M38.0184286,8.32333929 L39.8155714,10.3274464 L36.6205714,10.6070893 L35.0641429,8.88048214 L31.9484286,9.16280357 L31.3612857,11.0833393 L28.1162857,11.3865536 L30.0434286,4.93816071 L36.847,4.32208929 C37.8248571,4.23369643 38.7155714,4.258875 39.5198571,4.39708929 C40.6041429,4.58244643 41.1912857,4.95798214 41.282,5.52369643 C41.3084286,5.68655357 41.2927143,5.85958929 41.2341429,6.04280357 C40.9612857,6.96476786 39.8891429,7.72494643 38.0184286,8.32333929" id="Fill-32"></path>
                    <path d="M55.6326429,2.76723214 L55.2647857,3.89116071 L50.0755,4.30205357 C48.6876429,4.41133929 47.6162143,4.99633929 46.8633571,6.05544643 L54.7840714,5.42866071 L54.4147857,6.54294643 L46.3633571,7.17991071 L45.5133571,9.83116071 L42.2497857,10.0995536 L43.2319286,6.97901786 C43.6619286,5.61455357 44.9405,4.57794643 47.0683571,3.86973214 C48.1569286,3.50705357 49.1912143,3.286875 50.1712143,3.20919643 L55.6326429,2.76723214 Z" id="Fill-34"></path>
                    <path d="M67.2823571,4.43769643 C67.2359286,4.03376786 67.0152143,3.72144643 66.6223571,3.50073214 C66.2287857,3.28055357 65.7073571,3.19108929 65.0559286,3.23341071 L64.0002143,3.30198214 C63.5395,3.33251786 63.0373571,3.45358929 62.4930714,3.66626786 C61.4552143,4.07501786 60.7873571,4.699125 60.4909286,5.539125 C60.4073571,5.80001786 60.3787857,6.04483929 60.4052143,6.27305357 C60.4516429,6.67698214 60.6716429,6.98769643 61.0645,7.20519643 C61.4566429,7.42216071 61.9787857,7.51001786 62.6302143,7.46769643 L63.6859286,7.39858929 C64.1552143,7.36858929 64.6523571,7.24751786 65.1802143,7.03591071 C66.2187857,6.63358929 66.8859286,6.01269643 67.1830714,5.17269643 C67.2752143,4.91073214 67.3080714,4.66591071 67.2823571,4.43769643 M69.0266429,2.38483929 C70.0702143,2.704125 70.6337857,3.225375 70.7180714,3.94858929 C70.7487857,4.21591071 70.7123571,4.50680357 70.6080714,4.82233929 C70.1352143,6.17876786 68.8259286,7.19608929 66.6809286,7.87376786 C65.5837857,8.22091071 64.5437857,8.42608929 63.5623571,8.48983929 L61.8166429,8.60341071 C60.5737857,8.68430357 59.5166429,8.58251786 58.6430714,8.29805357 C57.6245,7.96376786 57.0730714,7.43180357 56.9887857,6.70216071 C56.9559286,6.41501786 56.9987857,6.10430357 57.1173571,5.767875 C57.5702143,4.46501786 58.8659286,3.48198214 61.0037857,2.81769643 C62.1095,2.47001786 63.1495,2.26483929 64.1223571,2.201625 L65.8816429,2.08698214 C67.0973571,2.00769643 68.1459286,2.10733929 69.0266429,2.38483929" id="Fill-36"></path>
                    <path d="M81.8624286,3.13216071 C81.8388571,2.857875 81.6288571,2.65858929 81.2338571,2.53323214 C80.9088571,2.41805357 80.5202857,2.37198214 80.0681429,2.39394643 L77.1838571,2.53430357 L76.3302857,4.78751786 L79.306,4.64233929 C79.6538571,4.62573214 80.0324286,4.55823214 80.4417143,4.43983929 C81.1831429,4.22019643 81.6352857,3.89341071 81.7988571,3.45948214 C81.8488571,3.33894643 81.871,3.23019643 81.8624286,3.13216071 M82.0367143,5.30233929 L83.6845714,7.37823214 L80.4731429,7.52501786 L79.0474286,5.73626786 L75.9145714,5.88894643 L75.1867143,7.78216071 L71.9252857,7.95091071 L74.3231429,1.59198214 L81.1631429,1.25876786 C82.1452857,1.21108929 83.0338571,1.27323214 83.826,1.44466071 C84.8945714,1.67448214 85.4531429,2.074125 85.5031429,2.64251786 C85.5167143,2.80644643 85.4874286,2.97841071 85.4167143,3.15894643 C85.0752857,4.06858929 83.9488571,4.78269643 82.0367143,5.30233929" id="Fill-38"></path>
                    <path d="M101.5395,1.06173214 C102.553071,1.43191071 103.078786,1.98316071 103.115929,2.71494643 C103.130214,2.98923214 103.071643,3.28869643 102.9395,3.61333929 L101.595214,6.77351786 L98.3680714,6.87583929 L99.6745,3.74994643 C99.7745,3.50458929 99.8202143,3.27369643 99.8087857,3.05780357 C99.7887857,2.65816071 99.5895,2.33941071 99.2102143,2.10101786 C98.8323571,1.86316071 98.3152143,1.746375 97.6609286,1.75226786 L95.4916429,6.94816071 L92.2252143,7.05208929 L94.3937857,1.83583929 L91.5445,1.91780357 L89.3623571,7.123875 L86.0952143,7.22726786 L88.7187857,0.918696429 L98.4030714,0.641196429 C99.6316429,0.605839286 100.677357,0.746196429 101.5395,1.06173214" id="Fill-40"></path>
                    <path d="M115.066286,1.50225 L112.620571,1.51617857 C111.679143,1.52207143 110.861286,1.72778571 110.168429,2.13385714 C109.474857,2.53992857 108.969857,3.08421429 108.654143,3.76617857 L114.029857,3.73510714 L115.066286,1.50225 Z M114.179143,0.428678571 C115.199143,0.42225 116.075571,0.417428571 116.807714,0.413142857 C118.612714,0.409392857 119.288429,0.408321429 118.834857,0.411 L115.956286,6.63707143 L112.687,6.666 L113.531286,4.81671429 L108.142714,4.84832143 L107.298429,6.68742857 L104.041286,6.71582143 L105.462,3.65207143 C106.067,2.33903571 107.474857,1.41010714 109.684143,0.866892857 C110.814857,0.585642857 111.877,0.441535714 112.871286,0.435642857 C112.906286,0.435642857 113.342,0.432964286 114.179143,0.428678571 L114.179143,0.428678571 Z" id="Fill-42"></path>
                    <path d="M131.026786,1.10491071 C131.999643,1.52008929 132.475357,2.09383929 132.453929,2.82616071 C132.445357,3.10741071 132.3625,3.40366071 132.204643,3.71491071 L130.633929,6.80866071 L127.378214,6.76366071 L128.934643,3.703125 C129.055357,3.45616071 129.118929,3.22473214 129.125357,3.00830357 C129.1375,2.589375 128.9475,2.25348214 128.553929,2.00116071 C128.159643,1.74883929 127.618929,1.61651786 126.930357,1.60526786 L124.589643,1.565625 L121.991786,6.66348214 L118.721786,6.61848214 L121.848929,0.459910714 L127.916786,0.542410714 C129.163929,0.563303571 130.200357,0.750803571 131.026786,1.10491071" id="Fill-44"></path>
                    <path d="M147.516714,1.18676786 L146.928857,2.253375 L141.704571,2.04123214 C141.243857,2.02248214 140.728143,2.08676786 140.158143,2.23355357 C139.054571,2.52283929 138.281714,3.070875 137.839571,3.87819643 C137.698857,4.12783929 137.621,4.36730357 137.603857,4.59551786 C137.574571,5.00051786 137.732429,5.33105357 138.076,5.587125 C138.420286,5.84373214 138.922429,5.988375 139.583857,6.02158929 L144.703857,6.22998214 L144.116,7.28641071 L138.552429,7.06033929 C137.324571,7.01051786 136.301,6.80533929 135.479571,6.44426786 C134.506714,6.01194643 134.046714,5.433375 134.098857,4.70855357 C134.118143,4.44069643 134.212429,4.15676786 134.383143,3.85569643 C135.096,2.568375 136.577429,1.70158929 138.827429,1.255875 C139.988143,1.02176786 141.056714,0.924267857 142.031714,0.963910714 L147.516714,1.18676786 Z" id="Fill-46"></path>
                    <path d="M161.605071,2.10048214 L160.969357,3.15155357 L155.757929,2.80816071 C155.045786,2.76101786 154.362929,2.85530357 153.710071,3.08941071 C153.0565,3.32405357 152.539357,3.65030357 152.157214,4.067625 L160.092214,4.59048214 L159.457929,5.63191071 L151.550071,5.11066071 C151.475786,5.58851786 151.623643,5.96994643 151.993643,6.25494643 C152.337929,6.52548214 152.827214,6.685125 153.460786,6.73333929 L158.567214,7.06976786 L157.932929,8.11119643 L152.383643,7.74583929 C151.158643,7.66494643 150.143643,7.43405357 149.339357,7.052625 C148.3865,6.59619643 147.952929,6.006375 148.037214,5.28316071 C148.068643,5.01583929 148.175786,4.73458929 148.359357,4.43780357 C149.129357,3.16923214 150.648643,2.34048214 152.917929,1.95155357 C154.088643,1.746375 155.160071,1.67566071 156.132929,1.73994643 L161.605071,2.10048214 Z" id="Fill-48"></path>
                </g>
                <g id="Group-2" transform="translate(32.857143, 36.964286)">
                    <path d="M13.3615,0.268392857 L12.8165,1.34785714 L7.5865,1.25410714 C6.87221429,1.24125 6.19864286,1.36767857 5.5665,1.63285714 C4.93435714,1.89803571 4.4465,2.24839286 4.10078571,2.68339286 L12.0636429,2.82535714 L11.5193571,3.89517857 L3.58292857,3.75321429 C3.55007143,4.23321429 3.73007143,4.60767857 4.12221429,4.87446429 C4.48935714,5.12732143 4.99078571,5.26339286 5.62721429,5.28107143 L10.7529286,5.37267857 L10.2086429,6.44196429 L4.63864286,6.34285714 C3.40935714,6.32089286 2.37721429,6.13928571 1.54221429,5.79696429 C0.552214286,5.38714286 0.0693571429,4.81875 0.0922142857,4.09339286 C0.100785714,3.82553571 0.183642857,3.53839286 0.3415,3.23410714 C1.00221429,1.93125 2.44792857,1.03178571 4.67935714,0.534642857 C5.83007143,0.274285714 6.89292857,0.152678571 7.87007143,0.169821429 L13.3615,0.268392857 Z" id="Fill-50"></path>
                    <path d="M28.9474286,1.02117857 C29.9302857,1.43421429 30.4131429,2.00742857 30.3931429,2.73975 C30.3867143,3.01403571 30.3045714,3.31028571 30.1481429,3.6285 L28.5631429,6.72546429 L25.3331429,6.68796429 L26.8781429,3.62367857 C26.9981429,3.38314286 27.0602857,3.15492857 27.066,2.9385 C27.076,2.53939286 26.9017143,2.21260714 26.5417143,1.95814286 C26.1824286,1.70367857 25.676,1.56546429 25.0224286,1.54296429 L22.4567143,6.636 L19.1874286,6.59796429 L21.7538571,1.48457143 L18.9024286,1.44332143 L16.3238571,6.54653571 L13.0545714,6.5085 L16.1588571,0.323678571 L25.8481429,0.465642857 C27.0774286,0.483321429 28.1102857,0.668678571 28.9474286,1.02117857" id="Fill-52"></path>
                    <path d="M42.5572143,3.08298214 C42.5643571,2.67744643 42.3872143,2.350125 42.0257857,2.10155357 C41.6636429,1.85244643 41.1557857,1.72494643 40.5022143,1.71798214 L39.4429286,1.70726786 C38.9800714,1.70244643 38.4650714,1.78548214 37.8950714,1.956375 C36.8072143,2.28583929 36.0600714,2.85691071 35.6536429,3.670125 C35.5350714,3.92405357 35.4743571,4.16566071 35.4700714,4.39441071 C35.4629286,4.79994643 35.6400714,5.12566071 36.0015,5.37101786 C36.3636429,5.616375 36.8715,5.74280357 37.5257857,5.74976786 L38.5843571,5.75994643 C39.0557857,5.76476786 39.5672143,5.68173214 40.1200714,5.51030357 C41.2065,5.18833929 41.9536429,4.61994643 42.3615,3.80726786 C42.4872143,3.55280357 42.5529286,3.31173214 42.5572143,3.08298214 M44.5665,1.17048214 C45.5622143,1.56691071 46.0536429,2.12726786 46.0407857,2.85316071 C46.0357857,3.12101786 45.9607857,3.40816071 45.8157857,3.71458929 C45.1636429,5.02869643 43.7265,5.94316071 41.5022143,6.45691071 C40.3643571,6.71994643 39.3015,6.846375 38.3165,6.83673214 L36.5643571,6.81905357 C35.3172143,6.80566071 34.2786429,6.625125 33.4479286,6.27691071 C32.4793571,5.86816071 32.0007857,5.297625 32.0136429,4.56530357 C32.0193571,4.277625 32.1029286,3.97119643 32.2657857,3.64601786 C32.8907857,2.38333929 34.3100714,1.50208929 36.5257857,1.00066071 C37.6722143,0.737625 38.7336429,0.611196429 39.7107857,0.620839286 L41.4757857,0.639053571 C42.6965,0.651375 43.7272143,0.828696429 44.5665,1.17048214" id="Fill-54"></path>
                    <polygon id="Fill-56" points="61.3797143 0.791035714 60.8597143 1.86728571 56.5704286 1.84532143 54.0904286 6.963 50.8075714 6.9555 53.2875714 1.82817857 48.9975714 1.80567857 49.5182857 0.729428571"></polygon>
                    <polygon id="Fill-58" points="67.4539286 0.773732143 64.4839286 6.99873214 61.2139286 7.00408929 64.1710714 0.779089286"></polygon>
                    <path d="M78.6837143,3.18342857 C78.6808571,2.77789286 78.4958571,2.45325 78.1287143,2.2095 C77.7608571,1.96521429 77.2501429,1.84414286 76.5958571,1.84628571 L75.5372857,1.85003571 C75.0744286,1.85110714 74.5608571,1.94110714 73.9951429,2.1195 C72.9158571,2.46289286 72.1822857,3.04414286 71.7944286,3.86271429 C71.6822857,4.11825 71.6272857,4.36039286 71.6287143,4.58914286 C71.6308571,4.99467857 71.8158571,5.31771429 72.183,5.55878571 C72.5508571,5.79932143 73.0615714,5.91825 73.7158571,5.91664286 L74.7751429,5.91342857 C75.2465714,5.91182143 75.7551429,5.82182143 76.3037143,5.64342857 C77.383,5.30646429 78.1165714,4.72896429 78.5044286,3.90985714 C78.6251429,3.65485714 78.6844286,3.41271429 78.6837143,3.18342857 M80.6472857,1.24467857 C81.6522857,1.62771429 82.1565714,2.18164286 82.1608571,2.90753571 C82.1622857,3.17539286 82.0937143,3.46360714 81.9565714,3.77164286 C81.3365714,5.09432143 79.9201429,6.02807143 77.7087143,6.57075 C76.5765714,6.84932143 75.518,6.98967857 74.5322857,6.99289286 L72.7801429,6.99825 C71.533,7.00253571 70.4901429,6.83539286 69.6508571,6.49842857 C68.6722857,6.10253571 68.1815714,5.53842857 68.1772857,4.80610714 C68.1751429,4.51842857 68.2522857,4.21092857 68.4072857,3.88360714 C69.0015714,2.61289286 70.4001429,1.71235714 72.603,1.18253571 C73.7437143,0.903964286 74.8022857,0.763071429 75.7794286,0.760392857 L77.5444286,0.7545 C78.7651429,0.75075 79.7994286,0.914142857 80.6472857,1.24467857" id="Fill-60"></path>
                    <path d="M95.0035,1.13523214 C95.9963571,1.52469643 96.4992143,2.08451786 96.5120714,2.817375 C96.5170714,3.09808929 96.4477857,3.39648214 96.3056429,3.71201786 L94.8849286,6.84594643 L91.6277857,6.88880357 L93.0370714,3.788625 C93.1456429,3.53844643 93.1985,3.30541071 93.1949286,3.08844643 C93.1870714,2.66951786 92.9806429,2.33951786 92.5749286,2.09791071 C92.1692143,1.85630357 91.6220714,1.73898214 90.9335,1.74594643 L88.5920714,1.77005357 L86.2399286,6.93380357 L82.9706429,6.97719643 L85.8006429,0.738803571 L91.8685,0.656839286 C93.1149286,0.644517857 94.1599286,0.804160714 95.0035,1.13523214" id="Fill-62"></path>
                    <path d="M111.331643,0.368303571 L110.841643,1.45633929 L104.958071,1.56026786 C104.557357,1.56669643 104.170214,1.606875 103.797357,1.67866071 C103.095214,1.80991071 102.683071,2.02151786 102.561643,2.31348214 C102.528786,2.37294643 102.512357,2.42919643 102.5145,2.48169643 C102.521643,2.71258929 102.770929,2.87598214 103.262357,2.97241071 C103.595929,3.03883929 103.975929,3.06883929 104.403786,3.06080357 L105.985929,3.03348214 C106.856643,3.01794643 107.6445,3.08919643 108.346643,3.24616071 C109.3395,3.46366071 109.843071,3.81669643 109.858071,4.30580357 C109.861643,4.42955357 109.835929,4.56401786 109.7795,4.70866071 C109.4445,5.458125 108.433071,6.01366071 106.743786,6.37633929 C105.877357,6.56758929 105.057357,6.67633929 104.281643,6.703125 L97.3387857,6.83544643 L97.8145,5.73776786 L103.738071,5.63383929 C104.138786,5.62633929 104.530214,5.58669643 104.911643,5.51383929 C105.605214,5.38366071 106.017357,5.17205357 106.147357,4.88008929 C106.171643,4.820625 106.183786,4.764375 106.181643,4.71133929 C106.1745,4.48151786 105.925214,4.31758929 105.433786,4.22116071 C105.100214,4.15419643 104.7245,4.12526786 104.305929,4.13223214 L102.671643,4.16116071 C101.808786,4.17616071 101.025214,4.10544643 100.323071,3.94794643 C99.3302143,3.72401786 98.8266429,3.37044643 98.8116429,2.88830357 C98.8080714,2.76455357 98.8337857,2.630625 98.8909286,2.48544643 C99.2252143,1.73651786 100.232357,1.18044643 101.912357,0.817767857 C102.778786,0.626517857 103.6045,0.517232143 104.388071,0.490982143 L111.331643,0.368303571 Z" id="Fill-64"></path>
                </g>
            </g>
        </g>
    </g>
</svg>